PathFileType	4	(X/Y/Z)	Kaydara	
DataRate	CameraRate	NumFrames	NumMarkers	Units	OrigDataRate	OrigDataStartFrame	OrigNumFrames	
120.00	120.00	4	72	mm	120.00	33	261	
Frame#	Time	Hips			RightUpLeg			RightLeg			RightFoot			RightFoot_End			LeftUpLeg			LeftLeg			LeftFoot			LeftFoot_End			Spine			Spine1			Spine2			Spine3			Neck			Head			Head_End			RightShoulder			RightArm			RightForeArm			RightHand			RightHandThumb1			RightHandThumb2			RightHandThumb3			RightHandThumb3_End			RightInHandIndex			RightHandIndex1			RightHandIndex2			RightHandIndex3			RightHandIndex3_End			RightInHandMiddle			RightHandMiddle1			RightHandMiddle2			RightHandMiddle3			RightHandMiddle3_End			RightInHandRing			RightHandRing1			RightHandRing2			RightHandRing3			RightHandRing3_End			RightInHandPinky			RightHandPinky1			RightHandPinky2			RightHandPinky3			RightHandPinky3_End			LeftShoulder			LeftArm			LeftForeArm			LeftHand			LeftHandThumb1			LeftHandThumb2			LeftHandThumb3			LeftHandThumb3_End			LeftInHandIndex			LeftHandIndex1			LeftHandIndex2			LeftHandIndex3			LeftHandIndex3_End			LeftInHandMiddle			LeftHandMiddle1			LeftHandMiddle2			LeftHandMiddle3			LeftHandMiddle3_End			LeftInHandRing			LeftHandRing1			LeftHandRing2			LeftHandRing3			LeftHandRing3_End			LeftInHandPinky			LeftHandPinky1			LeftHandPinky2			LeftHandPinky3			LeftHandPinky3_End			
		X1	Y1	Z1	X2	Y2	Z2	X3	Y3	Z3	X4	Y4	Z4	X5	Y5	Z5	X6	Y6	Z6	X7	Y7	Z7	X8	Y8	Z8	X9	Y9	Z9	X10	Y10	Z10	X11	Y11	Z11	X12	Y12	Z12	X13	Y13	Z13	X14	Y14	Z14	X15	Y15	Z15	X16	Y16	Z16	X17	Y17	Z17	X18	Y18	Z18	X19	Y19	Z19	X20	Y20	Z20	X21	Y21	Z21	X22	Y22	Z22	X23	Y23	Z23	X24	Y24	Z24	X25	Y25	Z25	X26	Y26	Z26	X27	Y27	Z27	X28	Y28	Z28	X29	Y29	Z29	X30	Y30	Z30	X31	Y31	Z31	X32	Y32	Z32	X33	Y33	Z33	X34	Y34	Z34	X35	Y35	Z35	X36	Y36	Z36	X37	Y37	Z37	X38	Y38	Z38	X39	Y39	Z39	X40	Y40	Z40	X41	Y41	Z41	X42	Y42	Z42	X43	Y43	Z43	X44	Y44	Z44	X45	Y45	Z45	X46	Y46	Z46	X47	Y47	Z47	X48	Y48	Z48	X49	Y49	Z49	X50	Y50	Z50	X51	Y51	Z51	X52	Y52	Z52	X53	Y53	Z53	X54	Y54	Z54	X55	Y55	Z55	X56	Y56	Z56	X57	Y57	Z57	X58	Y58	Z58	X59	Y59	Z59	X60	Y60	Z60	X61	Y61	Z61	X62	Y62	Z62	X63	Y63	Z63	X64	Y64	Z64	X65	Y65	Z65	X66	Y66	Z66	X67	Y67	Z67	X68	Y68	Z68	X69	Y69	Z69	X70	Y70	Z70	X71	Y71	Z71	X72	Y72	Z72	

33	0.267	4081.203	893.81699	129.612	4161.984165766725	897.0562813166476	84.0699791550977	4065.5265961488867	498.25541643102014	1.2717988067999813	4037.491083084418	108.93311191755485	-29.165968689729063	3923.7751239556255	37.352086892870275	107.8359588546313	4014.218862878869	865.2092040213834	188.74583393463337	3911.247355873081	476.0299482857348	303.9504239998121	3811.1679611541003	70.66997285965374	441.4349259969682	3666.3953853117673	11.704082112456069	333.0005156473462	4017.5718097207077	1011.3968287672836	79.14411120221297	3956.68046281336	1069.5213186496417	31.052127117424053	3889.1012739403377	1123.1843931329447	-21.371646344160215	3818.8645383554963	1163.0597525551582	-74.8479001709864	3742.6681185081393	1207.3481466422568	-129.34399267504506	3667.710513967172	1243.4143057851377	-173.85345838950187	3528.910721453877	1321.756893455815	-180.88914237955115	3787.258612914014	1199.1868535148224	-130.66657971973012	3848.867489893185	1205.6589050171294	-212.21547183774786	3909.0716009959538	989.4909677064916	-233.48089720851877	4013.7793530140675	835.3315837207731	-278.3226287580798	4010.55691700305	834.2993052466682	-299.0634741389065	3999.947605598783	824.2472508101378	-312.18137048257034	3994.6483322806253	814.7859562039669	-319.45248491409603	3992.0176862131025	804.7931294740418	-323.91931910354543	4019.1986912232624	825.4042257968106	-294.7745813538459	4028.954562021268	801.009526884583	-310.87776313222383	4028.0051493242977	783.9167750827525	-319.4623007272703	4020.708460454719	777.1239761264108	-323.6292583245868	4010.1452904744347	774.0875698904309	-326.28901066053913	4024.173185185679	819.5541325746831	-289.0191709047784	4036.381685078657	792.5959930598218	-301.61337104257905	4035.9607482238966	773.2514731091303	-310.1658872314982	4027.4526895569097	764.7237102712384	-314.8021082552191	4016.038135242698	761.2396966728481	-317.5222486802055	4027.5328873218937	816.0237962766669	-284.55968122536905	4041.6661343712385	788.7415181104549	-292.02704982277464	4041.9076208351175	771.2152291809583	-298.6284816445269	4034.023987936201	762.6360959496709	-302.64749802797144	4023.4445178385627	759.1927692348003	-304.9904545485614	4030.3806118753314	812.8172909027063	-278.81440522727837	4045.418307495211	785.7431689905196	-282.18586974158154	4046.4984857935883	770.7895783331561	-286.1086162705576	4041.177108438311	764.0872789969261	-288.3805682478055	4032.052301110859	760.7811529636211	-290.0764752735103	3748.4664554104775	1184.5787678756583	-91.92571911556257	3704.087935975705	1115.813787443439	-19.225934098439748	3870.9127289620874	985.1048535402815	-116.63144525691798	4021.9934939650852	867.2471003014072	-208.55998510556654	4026.1699698024086	872.631795158435	-228.46920648238105	4050.4796885671476	871.0974772079953	-235.54857336647552	4069.69407631643	867.2739743653132	-238.90661246184024	4087.6671037432016	861.7296551573291	-240.36122404243528	4033.5777479974895	863.0679872579051	-225.77485703903906	4064.8115937636367	847.2503067797613	-241.42696871792847	4092.7799626992305	837.2143776729035	-246.36701675159466	4109.303970157365	834.9799584637817	-246.23703385282502	4122.398161559995	835.8319749026847	-243.9701446985403	4039.0019509885224	856.1715530187388	-220.6714722340459	4072.3986775374137	837.0129032772483	-233.17933877245645	4103.53991494802	825.2042552211368	-237.83832988799213	4123.77409431101	822.0970628726511	-237.33044099798565	4138.246646315337	822.829300849741	-234.67937422587656	4041.9949767903217	851.6718417586857	-216.7197879011432	4074.40000157807	830.5050220531308	-224.65486355153706	4102.126590010654	819.3667027682471	-227.94759931444776	4121.954074003189	815.9203717886594	-227.04981444563964	4135.708832663904	816.396006599925	-224.36384997120723	4044.871636597475	847.1883200337911	-211.2920988827156	4076.2354954648417	824.9009629847941	-215.40778157829314	4099.207659601352	814.754696247507	-216.81122777640957	4114.042262522955	811.6473428082793	-215.55981355895213	4126.441032472234	811.7270524790118	-212.83715634867184
34	0.275	4081.203	893.81699	129.612	4162.302665537383	897.2148578833727	84.27024028399023	4065.5836407043817	498.4046946050955	1.7699721750964719	4037.33338603205	108.89533853319459	-27.933090551631796	3923.4667041774505	37.466348765084476	109.10973854474847	4013.8769840776213	865.0400321680863	188.5429976128588	3910.8795396348487	475.74126364503593	303.2984647551034	3810.225102294951	70.81618778034554	441.7983474408308	3665.401307191226	12.41081894584746	333.0951387273464	4017.630591275877	1011.434409555179	79.17535965564566	3956.793334370432	1069.6007874440431	31.076068980594194	3889.285385571474	1123.3181647627912	-21.375184754168515	3819.1523880732184	1163.2715669353274	-74.92657853092439	3743.0546054546594	1207.6446039869377	-129.4865034944852	3668.177444560859	1243.7851198434769	-174.04142738037785	3529.4488372977216	1322.240122307018	-181.10868109117396	3787.774315193843	1199.7115285465554	-130.72719961016682	3850.2928343657272	1207.4065035080152	-212.3267047345726	3911.4804829159025	990.863136549598	-235.70040275725603	4018.4341889013285	837.6104933934254	-282.1446505165127	4015.438071829901	836.8193286997523	-302.9122426159767	4005.008391639582	826.91982328598	-316.3147112830014	3999.8370478980955	817.5515148641912	-323.8135365730468	3997.3154769417392	807.6248708030973	-328.49546938138934	4024.1207103277193	827.9075993635677	-298.7163428437624	4034.252381477722	803.7690116184702	-315.17848377829364	4033.5113971779438	786.8078817286613	-324.0947261454145	4026.2836759008183	780.0622498427446	-328.460949451839	4015.736706652493	777.0415023819454	-331.28094246038114	4029.0873102666797	822.0103394237857	-293.03266024227975	4041.658099323981	795.2765038375015	-306.0157528706254	4041.462272342172	776.0684974348205	-314.9386271441644	4033.0363043531393	767.5942262212053	-319.819286614179	4021.6389334202327	764.125686922548	-322.71672004945583	4032.4324780865427	818.4405820998785	-288.61411934150306	4046.879641271834	791.3263848372404	-296.4639003205655	4047.3143781677304	773.9114530732982	-303.396119178507	4039.508358489668	765.3798659127441	-307.65515428227354	4028.944300540159	761.9491694437181	-310.1668187076811	4035.2475814505938	815.1777746279554	-282.91010727039696	4050.5553322436676	788.2246565087661	-286.6559697723034	4051.78427243414	773.34759992922	-290.8543864251583	4046.5166106100223	766.6738676158121	-293.30662828367457	4037.4037895723486	763.3754118359576	-295.15498627249934	3748.661733391737	1184.585340555929	-92.12244340903939	3703.738551527535	1114.7826584344841	-19.89706261994421	3871.7202949336374	985.120086438393	-118.51141218994684	4024.490737853894	868.506656576354	-211.59006514361	4028.867267865315	874.1227514875521	-231.34770673321515	4053.343862077738	872.7446226005504	-238.23441729276524	4072.6798873182265	869.0226347759233	-241.4890405154153	4090.7589584871744	863.5567380097899	-242.8837445753647	4036.3218512315793	864.5634987333342	-228.76216499540436	4067.914089730582	849.0390988101125	-244.40887993988002	4096.083764234534	839.1574159256213	-249.27847645084447	4112.674292137048	836.97468241801	-249.04345463707128	4125.7839943549425	837.8396587481795	-246.64831750243883	4041.746047806217	857.634754164182	-223.7394328144876	4075.492349950532	838.7446997463387	-236.2856787459501	4106.8520282861	827.0990882372249	-240.87836920304136	4127.16587522534	824.0517201116456	-240.24882976291278	4141.655112600436	824.79690763707	-237.45990309162283	4044.7305184215666	853.1052493521065	-219.845743379641	4077.4431479045006	832.1547940244709	-227.86812557608448	4105.358322383753	821.1527555408635	-231.11381323203378	4125.261691574286	817.7610379712631	-230.10438988889481	4139.031683889845	818.2473834070017	-227.2915052729023	4047.5822461650423	848.5748182855868	-214.4781436974292	4079.2149806416537	826.4588198183153	-218.71388983047314	4102.333991025672	816.4116505622474	-220.09602940871403	4117.221929597257	813.3392804562955	-218.77110351419816	4129.63303399772	813.4256853612978	-215.94057218166034
35	0.283	4081.203	893.81699	129.612	4162.58627541855	897.3499343784225	84.43281402964601	4065.5597486004644	498.5424955046343	2.2271143535632696	4037.141860844011	108.85210940350092	-26.76692189889122	3923.130130617227	37.56008568530135	110.31171973690967	4013.578148617987	864.9002056062101	188.3803363675525	3910.5777034591556	475.44885759341076	302.5901291809977	3809.2455108412432	70.95137381018634	441.9842785053783	3664.3437689225743	13.118910581210285	333.05380141669883	4017.6587597004245	1011.4499389471235	79.19316396876039	3956.8586494312967	1069.6369614549728	31.08287178973536	3889.406317140684	1123.3856553844817	-21.398100385073583	3819.3657754597734	1163.3945454262582	-75.0238144411402	3743.35515363818	1207.8286522421183	-129.6480234370634	3668.548336754516	1244.0239003086376	-174.2479118334946	3529.8915655836954	1322.5883772105637	-181.38081355662075	3788.2030985744327	1200.122692285042	-130.8038620544129	3851.608218752349	1208.9967830117907	-212.43846219628205	3913.8172944871135	992.0861521125656	-237.93341564801196	4023.079337638077	839.7584201972976	-285.94660096338765	4020.282035807788	839.1739859919619	-306.73542214684215	4010.0089855161814	829.4118609342046	-320.3906288008395	4004.950869195433	820.129321198108	-328.0925341384431	4002.527242237115	810.2657051463601	-332.9669267512026	4029.007240514205	830.2530497251222	-302.62489970582084	4039.4822882814624	806.3478578327963	-319.4093797937836	4038.929793839894	789.509999946292	-328.6226931200724	4031.761529429575	782.8094749872482	-333.16647417525104	4021.2248349959855	779.804792910699	-336.1286215913927	4033.9707785871806	824.3188684097278	-297.0070907081853	4046.8748445357173	797.7927202673076	-310.340194012005	4046.883116448371	778.7135509122007	-319.59496881507755	4038.528123011307	770.2909744449223	-324.69355769648524	4027.141625559056	766.8386889158305	-327.7483391700492	4037.305628732751	820.7174495790404	-292.6263667558327	4052.044296147594	793.7630065636486	-300.82119864792196	4052.6547788211883	776.4542344878412	-308.05006547240083	4044.916079269818	767.9692531974662	-312.523220526383	4034.3617039905753	764.552295834197	-315.18468385105064	4040.0941034320704	817.4084012706302	-286.9605218111452	4055.654955023022	790.574649493289	-291.044827270985	4057.019999240434	775.7723314443389	-295.49077302494777	4051.799202694292	769.1276252873138	-298.10402535075275	4042.6936708780413	765.8384808511372	-300.0878600947814	3748.779971150649	1184.4965494766134	-92.34023044323229	3703.3215078099406	1113.6334644005847	-20.599739386481954	3872.422613525225	984.9549948957545	-120.38449414797867	4027.020069321725	869.7044531459189	-214.7144611692616	4031.5965382427294	875.55534521222	-234.33627469724522	4056.24138494792	874.3510668321843	-241.0369705963992	4075.700611390258	870.7434084017069	-244.19095629932758	4093.8875476959956	865.3670572296373	-245.52648916650287	4039.1001478340327	866.0015896740591	-231.85492381364	4071.055971593204	850.7842751074332	-247.50399077319935	4099.430232276204	841.0729368417972	-252.30554596637	4116.088241919725	838.9539699284696	-251.9662497352001	4129.213522949587	839.8433035035557	-249.44300229174925	4044.5257870399696	859.0417630296535	-226.9074096425526	4078.627513297389	840.4344311771829	-239.4966544278938	4110.209386550108	828.9695481935867	-244.0249280509107	4130.604144034524	825.9966398059045	-243.27430256137632	4145.110181992956	826.767276985735	-240.34749267522017	4047.502602130076	854.4829203502485	-223.06769766690363	4080.528883518543	833.7617109557273	-231.17809655554225	4108.636084299526	822.91148018597	-234.3776083694856	4128.616627099748	819.5885496441904	-233.25668199985395	4142.402003485468	820.0973857966217	-230.31666156273147	4050.3302184674058	849.906176249742	-217.75517696254244	4082.237910352511	827.9735228153789	-222.10861762434007	4105.506758490291	818.0379950916697	-223.46894474347954	4120.4490866747365	815.0109999731862	-222.07002324051754	4132.87272488706	815.1145661239476	-219.13109149564835
36	0.292	4081.203	893.81699	129.612	4162.836948768144	897.4664050139044	84.55804445209665	4065.4621600681776	498.67064584488844	2.6516656090725728	4036.9306464969236	108.80574888343438	-25.66620128466049	3922.7792687545343	37.636860338598	111.4436754236993	4013.3206516877767	864.7844821049968	188.25677939486613	3910.3387490524806	475.15271596484536	301.84147937404754	3808.244707768702	71.07120728399062	442.00936364919636	3663.240499044651	13.816750232399409	332.89522657897584	4017.6549195968796	1011.4445191585555	79.2011595256486	3956.8773264393312	1069.6355543768484	31.078254758670788	3889.468520301241	1123.398980531778	-21.433435300707345	3819.5143002930467	1163.4497588572513	-75.13404971429601	3743.584480662745	1207.9304327801456	-129.8240270084054	3668.839626811773	1244.166714005995	-174.46730830602664	3530.251696303593	1322.8319688464867	-181.6978433431522	3788.56144399306	1200.4541840023858	-130.89145393820903	3852.823302984424	1210.454554782972	-212.5432125566691	3916.081493450829	993.1784491683258	-240.18295824783917	4027.6957551618793	841.7896436453079	-289.7243675330478	4025.061825691804	841.3714712238284	-310.52778927163894	4014.9157784926288	831.7298890335315	-324.3973902677767	4009.951859783489	822.5251897783792	-332.27284388606415	4007.6116827550823	812.7212409387988	-337.3126570935291	4033.8314196875162	832.449429473989	-306.4940087938378	4044.607300056841	808.7500391650686	-323.5578507156064	4044.217259053409	792.025854111141	-333.0270352024104	4037.0962204692228	785.3687879601915	-337.7222013208484	4026.5623454566717	782.3817207997554	-340.80446332120823	4038.7979039548813	826.4900720680828	-300.9353381291329	4051.996999326245	800.1510467617312	-314.5728935315386	4052.181894358916	781.1918911635727	-324.1138482442308	4043.8835680470493	772.8198135437704	-329.3984238124827	4032.5000048235734	769.3858623028317	-332.5862594430829	4042.1277323372797	822.8659155959444	-296.58885708469154	4057.12812394781	796.0603147114216	-305.0850637788544	4057.891420983922	778.851732941434	-312.5700188184677	4050.2067807098338	770.4131179203822	-317.22610595241025	4039.6548789502212	767.012289099261	-320.0143474729034	4044.8971847588004	819.522327119537	-290.95761460322694	4060.6883837343507	792.8048754829811	-295.33838641774383	4062.1728852470956	778.0752488337218	-299.99846558988276	4056.990111622618	771.4607163712197	-302.74953625936956	4047.8859605273	768.1837607804854	-304.8481997454493	3748.8306991647437	1184.3326517904472	-92.57486084858623	3702.840633768586	1112.3928176905538	-21.328936246703634	3873.0389339829026	984.6552734759854	-122.25266409087038	4029.5622380471123	870.8551978452705	-217.89684411057274	4034.3404495574605	876.9462105695051	-237.3987629909616	4059.155959879782	875.9346984926113	-243.9186210165985	4078.740502627164	872.454906010107	-246.97371103760136	4097.037440801432	867.1796962278881	-248.2499309050028	4041.8949428046753	867.3985783975552	-235.0171103298017	4074.221013252106	852.5038385578147	-250.67596473758795	4102.803814876349	842.9798499343572	-255.41078282704885	4119.530519065996	840.9371408262249	-254.9668393069704	4132.671542013207	841.8624652142919	-252.31437450604378	4047.322947095051	860.4084151391633	-230.13930362128525	4081.7870939997943	842.0993150771458	-242.77582037033082	4113.595577111402	830.8337723905194	-247.2403440338763	4134.072755685419	827.9504209559203	-246.36781999566378	4148.595796116899	828.7592500767186	-243.30173923571198	4050.292599542143	855.820308202003	-226.34951495845405	4083.639263722538	835.3421391814956	-234.54832424280977	4111.94242895998	824.6599714656681	-237.70146186036843	4132.001650413459	821.4204080393118	-236.4678344166652	4145.802623105982	821.9637242960565	-233.3991771640523	4053.0963922777532	851.1973421199845	-221.08695988181793	4085.285431566675	829.4605534236863	-225.5554020035162	4108.707382696692	819.6496763157984	-226.89253942616892	4123.705252055251	816.6786870592907	-225.418158885028	4136.141643384696	816.8100329579929	-222.36915796617208
